<svg width="80" height="80" fill="none" xmlns="http://www.w3.org/2000/svg"><g clip-path="url(#clip0)" fill="#9B69C3"><path d="M78.434 38.464h-.001c-.863 0-1.562.698-1.563 1.561-.005 9.841-3.84 19.093-10.799 26.052-6.963 6.963-16.222 10.799-26.07 10.799-9.848 0-19.107-3.836-26.07-10.8-6.965-6.963-10.8-16.222-10.8-26.07 0-9.849 3.835-19.107 10.8-26.071C25.104 2.76 42.131-.058 56.298 6.923A1.563 1.563 0 0057.68 4.12C42.313-3.453 23.843-.396 11.72 11.726 4.168 19.28.008 29.323.008 40.006s4.16 20.726 11.714 28.28C19.275 75.84 29.318 80 40 80s20.726-4.16 28.28-11.714c7.548-7.548 11.709-17.585 11.714-28.26 0-.862-.699-1.562-1.561-1.563z"/><path d="M63.049 7.314l-.041-.029a1.562 1.562 0 10-1.791 2.56l.036.026a1.56 1.56 0 101.796-2.557zm7.544 31.118c-.863 0-1.562.7-1.562 1.563v.095a1.562 1.562 0 001.555 1.57h.007c.86 0 1.558-.695 1.562-1.556v-.11c0-.862-.7-1.562-1.562-1.562zm-.335 6.372a1.562 1.562 0 00-1.85 1.207c-2.81 13.351-14.77 23.042-28.435 23.042-16.023 0-29.059-13.036-29.059-29.058a29 29 0 0114.215-24.99 1.562 1.562 0 002.944.93l1.731-3.502a1.562 1.562 0 00-.708-2.093l-3.503-1.73a1.562 1.562 0 00-1.384 2.8l.495.245A32.118 32.118 0 007.79 39.995c0 17.745 14.437 32.182 32.183 32.182a32.24 32.24 0 0020.405-7.295c5.652-4.639 9.59-11.113 11.087-18.228a1.562 1.562 0 00-1.207-1.85z"/><path d="M40 35.007a5.008 5.008 0 00-4.748 3.437H22.346a1.562 1.562 0 000 3.124h12.906a5.02 5.02 0 003.185 3.186V61.81a1.562 1.562 0 003.125 0V44.754a5.007 5.007 0 003.437-4.748c0-2.757-2.243-5-5-5zm0 6.874a1.877 1.877 0 01-1.875-1.875c0-1.034.841-1.875 1.875-1.875 1.033 0 1.874.841 1.874 1.875A1.877 1.877 0 0140 41.881zm7.188-12.684h-3.045c2.17-2.18 4.607-5.331 4.607-8.502 0-3.093-2.078-5.17-5.17-5.17-2.85 0-5.17 2.32-5.17 5.17a1.562 1.562 0 003.125 0c0-1.128.917-2.046 2.045-2.046 2.046 0 2.046 1.54 2.046 2.046 0 3.244-4.75 7.457-6.579 8.806a1.563 1.563 0 00.926 2.82h7.215a1.562 1.562 0 100-3.124zm16.223-6.83h-.242v-5.28a1.562 1.562 0 00-3.125 0v5.28h-4.211v-5.28a1.562 1.562 0 00-3.125 0v6.842c0 .863.7 1.562 1.562 1.562h5.774v5.295a1.562 1.562 0 003.125 0v-5.295h.242a1.562 1.562 0 000-3.124zm11.023.039c-.647 0-1.265.126-1.833.353v-5.672a1.563 1.563 0 00-3.124 0v13.672a1.562 1.562 0 003.124 0v-3.395c0-1.011.823-1.833 1.833-1.833 1.011 0 1.833.822 1.833 1.833v3.395a1.563 1.563 0 003.125 0v-3.395a4.963 4.963 0 00-4.958-4.958z"/></g><defs><clipPath id="clip0"><path fill="#fff" d="M0 0h80v80H0z"/></clipPath></defs></svg>