<svg width="80" height="80" fill="none" xmlns="http://www.w3.org/2000/svg"><path d="M72.188 4.219H7.811C3.505 4.219 0 7.723 0 12.03v55.94c0 4.308 3.505 7.812 7.813 7.812h64.374c4.308 0 7.813-3.504 7.813-7.812V12.03c0-4.308-3.505-7.812-7.813-7.812zm4.687 63.75a4.693 4.693 0 01-4.688 4.687H7.814a4.693 4.693 0 01-4.688-4.687V12.03a4.693 4.693 0 014.688-4.687h64.374a4.693 4.693 0 014.688 4.687v55.94z" fill="#9B69C3"/><path d="M53.75 59.219c-2.757 0-5 2.243-5 5s2.243 5 5 5 5-2.243 5-5-2.243-5-5-5zm0 6.875a1.877 1.877 0 01-1.875-1.875c0-1.034.841-1.875 1.875-1.875s1.875.84 1.875 1.875a1.877 1.877 0 01-1.875 1.875zm13.75-6.875c-2.757 0-5 2.243-5 5s2.243 5 5 5 5-2.243 5-5-2.243-5-5-5zm0 6.875a1.877 1.877 0 01-1.875-1.875c0-1.034.841-1.875 1.875-1.875s1.875.84 1.875 1.875a1.877 1.877 0 01-1.875 1.875zm-49.535-3.438H9.063a1.563 1.563 0 000 3.125h8.902a1.562 1.562 0 100-3.125zm19.587 0H28.65a1.563 1.563 0 000 3.125h8.903a1.562 1.562 0 100-3.125zm33.386-50.937H47.03a1.562 1.562 0 000 3.125h22.344v20.912h-3.94c-.621 0-1.183.368-1.432.938l-1.395 3.2-2.824-8.724a1.562 1.562 0 00-2.824-.326l-3.218 5.335h-3.74c-.629 0-1.196.377-1.44.955l-1.95 4.623-4.93-21.426a1.562 1.562 0 00-1.48-1.211 1.573 1.573 0 00-1.544 1.127l-4.704 16.26h-5.387c-.706 0-1.324.474-1.508 1.155l-.844 3.122-4.478-13.275a1.563 1.563 0 00-2.905-.143l-4.178 9.25h-4.029V14.845h22.344a1.562 1.562 0 000-3.125H9.062c-.862 0-1.562.7-1.562 1.562V54.22c0 .863.7 1.562 1.563 1.562h61.874c.863 0 1.563-.7 1.563-1.562V13.28c0-.863-.7-1.562-1.563-1.562zM10.624 52.656V39.742h5.038c.614 0 1.172-.36 1.424-.92l2.959-6.55 4.854 14.39a1.563 1.563 0 002.99-.092l1.874-6.938h5.365c.696 0 1.308-.46 1.501-1.128L39.987 26.9l4.665 20.269a1.562 1.562 0 002.962.257l3.425-8.122h3.585c.548 0 1.055-.287 1.338-.755l1.904-3.157 3.04 9.388a1.562 1.562 0 002.918.144l2.635-6.043h2.916v13.775h-58.75z" fill="#9B69C3"/><path d="M40 14.844c.41 0 .814-.167 1.105-.458.29-.29.458-.694.458-1.105 0-.41-.168-.814-.459-1.104A1.573 1.573 0 0040 11.719c-.41 0-.814.167-1.105.458-.29.29-.458.693-.458 1.104 0 .411.168.814.458 1.105.29.29.694.458 1.105.458z" fill="#9B69C3"/></svg>