<svg width="80" height="80" fill="none" xmlns="http://www.w3.org/2000/svg"><g clip-path="url(#clip0)" fill="#9B69C3"><path d="M46.25 29.688a1.563 1.563 0 100-3.126 1.563 1.563 0 000 3.125zm-12.5 0a1.563 1.563 0 100-3.126 1.563 1.563 0 000 3.125zM40 43.75a6.261 6.261 0 005.894-4.167 1.562 1.562 0 10-2.947-1.041A3.131 3.131 0 0140 40.625a3.13 3.13 0 01-2.947-2.083 1.563 1.563 0 00-2.946 1.041A6.261 6.261 0 0040 43.75zM55.625 80a1.563 1.563 0 100-3.125 1.563 1.563 0 000 3.125z"/><path d="M62.656 76.875a1.563 1.563 0 000 3.125h5.469c.863 0 1.563-.7 1.563-1.563V65.528a14.064 14.064 0 00-12.074-13.92l-6.278-.897a4.097 4.097 0 01-3.44-3.246c3.293-2.166 6.296-5.649 8.585-9.965h.706a6.257 6.257 0 006.25-6.25c0-2.336-1.333-4.457-3.359-5.518l.234-5.42C60.313 9.113 51.2 0 40 0 28.8 0 19.687 9.112 19.687 20.313l.002.068.233 5.35c-2.026 1.062-3.36 3.183-3.36 5.519a6.257 6.257 0 006.25 6.25h.707c2.29 4.317 5.292 7.8 8.585 9.965a4.101 4.101 0 01-3.439 3.246l-6.278.897a14.064 14.064 0 00-12.075 13.92v12.91c0 .862.7 1.562 1.563 1.562h36.719a1.563 1.563 0 000-3.125h-7.032V64.611l8.735-10.92c.197.045.395.085.596.113l3.17.453v10.387a4.695 4.695 0 00-3.126 4.418 4.693 4.693 0 004.688 4.688 4.693 4.693 0 004.688-4.688 4.695 4.695 0 00-3.126-4.418v-9.94c5.346.772 9.376 5.422 9.376 10.824v11.347h-3.907zM40 61.561l-7.407-9.26a7.186 7.186 0 002.34-3.332C36.6 49.653 38.297 50 40 50c1.703 0 3.4-.347 5.067-1.03a7.186 7.186 0 002.34 3.333L40 61.56zm0-58.436c9.466 0 17.17 7.692 17.188 17.154l-.194 4.455a4.454 4.454 0 01-2.931-4.176v-.245c0-.863-.7-1.563-1.563-1.563h-5.51a9.693 9.693 0 01-8.718-5.386 1.563 1.563 0 00-2.96.698 4.693 4.693 0 01-4.687 4.688H27.5c-.863 0-1.563.7-1.563 1.563v.245a4.456 4.456 0 01-2.93 4.177l-.195-4.456C22.83 10.817 30.535 3.125 40 3.125zM25.873 35.244a1.563 1.563 0 00-1.4-.869h-1.66a3.129 3.129 0 01-3.125-3.125c0-2.488 2.37-2.968 2.695-3.179a7.592 7.592 0 006.564-6.196h1.678a7.82 7.82 0 006.895-4.142c2.396 2.613 5.794 4.142 9.47 4.142h4.063a7.593 7.593 0 006.563 6.196c.315.205 2.697.702 2.697 3.179a3.129 3.129 0 01-3.126 3.125h-1.66c-.594 0-1.137.337-1.4.869-2.75 5.547-7.93 11.631-14.127 11.631-6.178 0-11.335-6-14.127-11.631zM13.437 76.875V65.528c0-5.402 4.03-10.052 9.376-10.824v4.828c-3.562.726-6.25 3.883-6.25 7.656v5c0 .862.699 1.562 1.562 1.562h3.125a1.563 1.563 0 000-3.125h-1.563v-3.438a4.693 4.693 0 014.688-4.687 4.693 4.693 0 014.688 4.688v3.437H27.5a1.563 1.563 0 000 3.125h3.125c.863 0 1.563-.7 1.563-1.563v-5c0-3.772-2.689-6.929-6.25-7.655v-5.274l3.17-.454c.2-.028.399-.068.594-.113l8.735 10.92v12.264h-25zm42.188-6.25c-.862 0-1.563-.7-1.563-1.563a1.564 1.564 0 013.126.001c0 .861-.701 1.562-1.563 1.562z"/></g><defs><clipPath id="clip0"><path fill="#fff" d="M0 0h80v80H0z"/></clipPath></defs></svg>