<svg width="80" height="80" fill="none" xmlns="http://www.w3.org/2000/svg"><g clip-path="url(#clip0)" fill="#9B69C3"><path d="M76.707 33.432l-1.03-.77a3.449 3.449 0 01-1.106-4.129l.507-1.18a8.146 8.146 0 00-.438-7.343 8.144 8.144 0 00-6.14-4.05l-1.276-.153a3.448 3.448 0 01-3.023-3.022l-.152-1.276A8.146 8.146 0 0060 5.369a8.142 8.142 0 00-7.342-.437l-1.182.506a3.448 3.448 0 01-4.129-1.107l-.77-1.028A8.144 8.144 0 0040 .01a8.144 8.144 0 00-6.577 3.293l-.77 1.028a3.447 3.447 0 01-4.13 1.107l-1.18-.506A8.144 8.144 0 0020 5.369a8.143 8.143 0 00-4.05 6.14l-.152 1.275a3.448 3.448 0 01-3.023 3.023l-1.276.153a8.143 8.143 0 00-6.14 4.05 8.144 8.144 0 00-.437 7.342l.506 1.181a3.448 3.448 0 01-1.107 4.13l-1.028.769A8.146 8.146 0 000 40.009c0 2.614 1.2 5.011 3.293 6.578l1.029.77a3.449 3.449 0 011.106 4.128l-.506 1.181a8.146 8.146 0 00.437 7.343 8.144 8.144 0 006.14 4.05l1.276.152a3.448 3.448 0 013.023 3.023l.152 1.276A8.146 8.146 0 0020 74.65a8.146 8.146 0 007.342.437l1.182-.506a3.448 3.448 0 014.129 1.106l.77 1.029A8.145 8.145 0 0040 80.009c2.614 0 5.011-1.2 6.577-3.293l.77-1.029a3.448 3.448 0 014.13-1.106l1.18.506A8.145 8.145 0 0060 74.65a8.148 8.148 0 004.05-6.14l.152-1.276a3.448 3.448 0 013.023-3.023l1.275-.152a8.147 8.147 0 006.141-4.05 8.145 8.145 0 00.436-7.343l-.505-1.18a3.448 3.448 0 011.107-4.13l1.028-.77A8.145 8.145 0 0080 40.01a8.149 8.149 0 00-3.293-6.578zm-1.873 10.653l-1.028.77a6.563 6.563 0 00-2.107 7.861l.506 1.18a5.048 5.048 0 01-.27 4.55 5.046 5.046 0 01-3.806 2.51l-1.275.152a6.564 6.564 0 00-5.755 5.756l-.153 1.275a5.048 5.048 0 01-2.509 3.805 5.048 5.048 0 01-4.55.27l-1.18-.505a6.565 6.565 0 00-7.862 2.106l-.77 1.029A5.048 5.048 0 0140 76.884a5.048 5.048 0 01-4.076-2.04l-.77-1.028a6.563 6.563 0 00-7.861-2.108l-1.181.507a5.049 5.049 0 01-4.55-.27 5.047 5.047 0 01-2.51-3.806l-.151-1.275a6.564 6.564 0 00-5.756-5.755l-1.276-.153a5.047 5.047 0 01-3.804-2.51 5.048 5.048 0 01-.27-4.549l.505-1.18a6.565 6.565 0 00-2.106-7.862l-1.03-.77a5.048 5.048 0 01-2.039-4.076c0-1.62.743-3.105 2.04-4.075l1.029-.77A6.564 6.564 0 008.3 27.302l-.505-1.18a5.048 5.048 0 01.27-4.55 5.047 5.047 0 013.805-2.51l1.276-.152a6.563 6.563 0 005.755-5.755l.152-1.276a5.048 5.048 0 012.51-3.805 5.046 5.046 0 014.549-.27l1.18.505a6.565 6.565 0 007.863-2.106l.77-1.028A5.048 5.048 0 0140 3.135c1.619 0 3.105.743 4.075 2.04l.77 1.029a6.564 6.564 0 007.861 2.106l1.181-.506a5.048 5.048 0 014.55.27 5.046 5.046 0 012.51 3.805l.152 1.276a6.564 6.564 0 005.755 5.755l1.275.152a5.047 5.047 0 013.805 2.51c.81 1.402.908 3.06.271 4.55l-.506 1.18a6.564 6.564 0 002.107 7.862l1.028.77a5.047 5.047 0 012.04 4.076 5.046 5.046 0 01-2.04 4.075z"/><path d="M40 9.082c-4.713 0-9.24 1.034-13.452 3.073a1.563 1.563 0 101.36 2.813A27.53 27.53 0 0140 12.207c15.326 0 27.794 12.468 27.794 27.794 0 15.325-12.468 27.793-27.794 27.793-15.325 0-27.794-12.468-27.794-27.793 0-6.277 2.042-12.2 5.905-17.129a1.563 1.563 0 00-2.46-1.928c-4.297 5.485-6.569 12.074-6.569 19.057 0 17.048 13.87 30.918 30.918 30.918 17.049 0 30.919-13.87 30.919-30.918 0-17.049-13.87-30.919-30.919-30.919z"/><path d="M17.155 32.045l-1.19 1.517a1.562 1.562 0 102.458 1.93l.654-.833v10.334h-1.046a1.562 1.562 0 100 3.124h5.164a1.563 1.563 0 000-3.124h-.993V33.01c0-.864-.7-1.563-1.563-1.563h-2.255c-.48 0-.933.22-1.229.598zM29.71 48.117h.812c2.58 0 4.68-2.1 4.68-4.68v-7.573c0-2.581-2.1-4.68-4.68-4.68h-.811a4.685 4.685 0 00-4.68 4.68v7.573c0 2.58 2.099 4.68 4.68 4.68zm-1.554-12.253c0-.858.698-1.556 1.555-1.556h.811c.857 0 1.555.698 1.555 1.556v7.573c0 .857-.698 1.555-1.555 1.555h-.811a1.557 1.557 0 01-1.555-1.555v-7.573zm14.146 12.253c2.58 0 4.68-2.1 4.68-4.68v-7.573c0-2.581-2.1-4.68-4.68-4.68h-.812a4.685 4.685 0 00-4.68 4.68v7.573c0 2.58 2.1 4.68 4.68 4.68h.812zm-2.366-4.68v-7.573c0-.858.697-1.556 1.554-1.556h.812c.857 0 1.555.698 1.555 1.556v7.573c0 .857-.698 1.555-1.555 1.555h-.812a1.556 1.556 0 01-1.554-1.555zm23.001-12.443a1.563 1.563 0 00-2.183.344l-9.928 13.653a1.562 1.562 0 102.528 1.838l9.928-13.653a1.563 1.563 0 00-.345-2.182zm-37.011-5.95c.365 0 .73-.127 1.027-.386A19.83 19.83 0 0140 19.768c4.492 0 8.728 1.463 12.251 4.231a1.562 1.562 0 101.931-2.456c-4.08-3.206-8.983-4.9-14.182-4.9a22.954 22.954 0 00-15.102 5.661 1.562 1.562 0 001.028 2.74zm-.287 32.64c4.078 3.205 8.983 4.9 14.182 4.9 3.607 0 7.06-.814 10.265-2.416a1.563 1.563 0 00-1.399-2.795 19.636 19.636 0 01-8.866 2.086c-4.492 0-8.729-1.464-12.252-4.233a1.563 1.563 0 00-1.93 2.458zm29.704-2.673a1.58 1.58 0 00-1.603-.664 1.579 1.579 0 00-1.245 1.328 1.578 1.578 0 00.813 1.582 1.577 1.577 0 001.77-.205 1.582 1.582 0 00.265-2.04zM52.69 30.695a3.681 3.681 0 00-3.677 3.677 3.682 3.682 0 003.677 3.677 3.682 3.682 0 003.677-3.677 3.681 3.681 0 00-3.677-3.677zm0 4.23a.553.553 0 11.002-1.107.553.553 0 01-.002 1.106zm4.995 8.97a3.682 3.682 0 003.677 3.678 3.682 3.682 0 003.678-3.678 3.682 3.682 0 00-3.678-3.677 3.682 3.682 0 00-3.677 3.677zm4.23 0a.553.553 0 11-1.105 0 .553.553 0 011.105 0zM20.23 17.728c.251.604.865.993 1.518.963a1.576 1.576 0 001.41-1.083 1.574 1.574 0 00-.535-1.717 1.581 1.581 0 00-1.818-.06 1.575 1.575 0 00-.575 1.897z"/></g><defs><clipPath id="clip0"><path fill="#fff" d="M0 0h80v80H0z"/></clipPath></defs></svg>