<svg width="80" height="80" fill="none" xmlns="http://www.w3.org/2000/svg"><g clip-path="url(#clip0)" fill="#9B69C3"><path d="M16.719 29.688c0 12.923 10.514 23.437 23.437 23.437 12.924 0 23.438-10.514 23.438-23.437 0-12.924-10.514-23.438-23.438-23.438-12.923 0-23.437 10.514-23.437 23.438zM40.156 9.375c11.2 0 20.313 9.112 20.313 20.313 0 11.2-9.112 20.312-20.313 20.312-11.2 0-20.312-9.112-20.312-20.312 0-11.201 9.112-20.313 20.312-20.313z"/><path d="M25.686 26.902l6.056 5.967-1.393 8.387A1.562 1.562 0 0032.61 42.9l7.546-3.918 7.545 3.918a1.562 1.562 0 002.262-1.643l-1.394-8.387 6.057-5.967a1.561 1.561 0 00-.864-2.658l-8.406-1.265-3.803-7.606a1.562 1.562 0 00-2.794 0l-3.804 7.606-8.405 1.265a1.562 1.562 0 00-.864 2.658zm10.537-.954a1.563 1.563 0 001.165-.846l2.768-5.537 2.768 5.537c.228.455.662.77 1.165.846l6.118.921-4.409 4.343a1.565 1.565 0 00-.445 1.37l1.015 6.103-5.492-2.851a1.558 1.558 0 00-1.44 0l-5.492 2.851 1.014-6.104a1.562 1.562 0 00-.444-1.37l-4.409-4.342 6.118-.921zm5.496-24.385a1.562 1.562 0 11-3.125 0 1.562 1.562 0 013.125 0z"/><path d="M32.792.921C19.648 4.276 10.47 16.105 10.47 29.688A29.595 29.595 0 0020.242 51.7l-9.414 16.59a1.563 1.563 0 001.677 2.301l10.69-2.22 3.758 10.588a1.562 1.562 0 002.83.25l10.373-18.238L50.53 79.21a1.562 1.562 0 002.831-.25l3.757-10.588 10.69 2.22a1.563 1.563 0 001.677-2.3l-9.414-16.59a29.595 29.595 0 009.773-22.014c0-13.583-9.18-25.412-22.323-28.767a1.562 1.562 0 10-.773 3.028C58.507 6.951 66.72 17.535 66.72 29.688c0 14.79-12.012 26.562-26.563 26.562-14.56 0-26.562-11.782-26.562-26.563 0-12.152 8.212-22.736 19.971-25.738a1.563 1.563 0 00-.773-3.028zm-4.037 73.775l-3.07-8.653a1.563 1.563 0 00-1.79-1.008l-8.645 1.796L22.7 53.7a29.75 29.75 0 0014.836 5.557l-8.78 15.438zm27.662-9.66a1.563 1.563 0 00-1.79 1.007l-3.07 8.653-8.781-15.438a29.752 29.752 0 0014.836-5.557l7.45 13.13-8.645-1.796z"/></g><defs><clipPath id="clip0"><path fill="#fff" d="M0 0h80v80H0z"/></clipPath></defs></svg>