<svg width="24" height="22" fill="none" xmlns="http://www.w3.org/2000/svg"><path d="M12.11.564h0a.092.092 0 00-.038-.046A.14.14 0 0012 .5a.14.14 0 00-.071.018.092.092 0 00-.038.045h0L8.838 7.509l-.12.272-.297.025-7.815.645s0 0 0 0a.124.124 0 00-.07.025.097.097 0 00-.031.044.075.075 0 00-.003.043c.002.008.008.023.031.043h0l5.93 4.938.239.2-.073.302-1.777 7.345h0c-.005.022-.002.034.002.043a.102.102 0 00.036.042.13.13 0 00.144.005l6.716-3.894.25-.145.252.145 6.716 3.894h.001c.05.03.1.025.142-.005a.103.103 0 00.037-.042c.003-.009.007-.02.001-.043L12.11.564zm0 0l3.053 6.945.12.273.296.024 7.815.645s0 0 0 0a.123.123 0 01.07.025.098.098 0 01.031.045.077.077 0 01.003.043c-.002.008-.008.023-.03.042h-.001l-5.928 4.937-.24.2.074.302 1.776 7.344L12.11.564z" stroke="#8193A9"/></svg>