<svg width="80" height="80" viewBox="0 0 80 80" fill="none" xmlns="http://www.w3.org/2000/svg">
<g clip-path="url(#clip0)">
<path d="M78.4336 38.4635C78.4333 38.4635 78.4331 38.4635 78.4328 38.4635C77.5703 38.4635 76.8709 39.1624 76.8704 40.025C76.8654 49.866 73.0304 59.118 66.0715 66.0767C59.1078 73.0405 49.849 76.8757 40.0007 76.8757C30.1525 76.8757 20.894 73.0403 13.9301 66.0766C6.96637 59.113 3.13121 49.8539 3.13121 40.0058C3.13121 30.1575 6.96621 20.8988 13.9301 13.935C25.1054 2.75956 42.1323 -0.058412 56.2992 6.92253C57.0726 7.30378 58.0097 6.9855 58.3911 6.21175C58.7725 5.43784 58.4542 4.50128 57.6803 4.11987C42.3125 -3.45279 23.8429 -0.396069 11.7209 11.7257C4.16699 19.2796 0.00683594 29.3228 0.00683594 40.0058C0.00683594 50.6886 4.16699 60.7321 11.7207 68.2861C19.2748 75.84 29.3182 80 40.0011 80C50.6839 80 60.7273 75.8399 68.2812 68.2861C75.8295 60.7377 79.9897 50.7014 79.9951 40.0266C79.9954 39.1636 79.2965 38.4639 78.4336 38.4635Z" fill="#9B69C3"/>
<path d="M63.0487 7.3138L63.0079 7.28521C62.3013 6.79036 61.3269 6.96224 60.8321 7.66927C60.3376 8.37599 60.5096 9.35005 61.2165 9.8449L61.2529 9.87068C61.5262 10.0626 61.8393 10.1547 62.1494 10.1547C62.6412 10.1547 63.1251 9.92318 63.4293 9.49036C63.9252 8.78411 63.7549 7.80989 63.0487 7.3138Z" fill="#9B69C3"/>
<path d="M70.593 38.4322C69.7304 38.4322 69.0307 39.1316 69.0307 39.9945L69.0305 40.0902C69.0266 40.9528 69.7229 41.6555 70.5858 41.6592C70.5883 41.6592 70.5905 41.6594 70.593 41.6594C71.4526 41.6594 72.1515 40.9645 72.1552 40.1039L72.1554 39.9944C72.1554 39.1316 71.4558 38.4322 70.593 38.4322Z" fill="#9B69C3"/>
<path d="M70.2579 44.8039C69.414 44.6256 68.5853 45.1665 68.4075 46.0109C65.5975 59.3622 53.6387 69.0528 39.9726 69.0528C23.9498 69.0528 10.9143 56.0173 10.9143 39.9945C10.9143 29.6176 16.3821 20.1909 25.1287 15.0044C25.0271 15.6601 25.354 16.3339 25.9806 16.6434C26.2032 16.7534 26.4393 16.8056 26.6715 16.8056C27.2471 16.8056 27.8009 16.4861 28.0734 15.9351L29.804 12.4329C30.1864 11.6595 29.8692 10.7226 29.0957 10.3403L25.5934 8.60951C24.8196 8.22716 23.8831 8.54451 23.5006 9.31795C23.1182 10.0914 23.4354 11.0283 24.2089 11.4106L24.7039 11.6551C14.3357 17.2331 7.78979 28.0451 7.78979 39.9942C7.78979 57.7398 22.2268 72.177 39.9726 72.177C47.4 72.177 54.6467 69.5864 60.3778 64.8825C66.0301 60.2431 69.9676 53.7695 71.4651 46.6542C71.6426 45.8101 71.1023 44.9815 70.2579 44.8039Z" fill="#9B69C3"/>
<path d="M39.9998 35.0066C37.7889 35.0066 35.9096 36.45 35.2518 38.4436H22.346C21.4834 38.4436 20.7837 39.143 20.7837 40.006C20.7837 40.8686 21.4832 41.5683 22.346 41.5683H35.2518C35.7473 43.07 36.9357 44.2585 38.4375 44.7539V61.8108C38.4375 62.6734 39.137 63.3731 39.9996 63.3731C40.8623 63.3731 41.562 62.6736 41.562 61.8108V44.7538C43.5556 44.0961 44.999 42.2167 44.999 40.0058C44.999 37.2492 42.7564 35.0066 39.9998 35.0066ZM39.9998 41.8807C38.966 41.8807 38.1251 41.0397 38.1251 40.006C38.1251 38.9722 38.966 38.1313 39.9998 38.1313C41.0335 38.1313 41.8745 38.9722 41.8745 40.006C41.8745 41.0397 41.0335 41.8807 39.9998 41.8807Z" fill="#9B69C3"/>
<path d="M47.1875 29.1972H44.1426C46.3136 27.0178 48.7498 23.8659 48.7498 20.6947C48.7498 17.6025 46.6722 15.5248 43.58 15.5248C40.7294 15.5248 38.4102 17.8441 38.4102 20.6947C38.4102 21.5575 39.1097 22.257 39.9725 22.257C40.8351 22.257 41.5348 21.5577 41.5348 20.6947C41.5348 19.5669 42.4523 18.6494 43.5801 18.6494C45.6255 18.6494 45.6255 20.1889 45.6255 20.6947C45.6253 23.9392 40.8761 28.1519 39.047 29.5008C38.5033 29.9008 38.2777 30.6048 38.4881 31.2464C38.6987 31.8878 39.2975 32.3217 39.9727 32.3217H47.1878C48.0504 32.3217 48.7501 31.6223 48.7501 30.7594C48.7498 29.8966 48.0501 29.1972 47.1875 29.1972Z" fill="#9B69C3"/>
<path d="M63.4115 22.3667H63.1686V17.0869C63.1686 16.2241 62.4691 15.5245 61.6063 15.5245C60.7435 15.5245 60.044 16.2239 60.044 17.0869V22.3667H55.8327V17.0869C55.8327 16.2241 55.1332 15.5245 54.2704 15.5245C53.4077 15.5245 52.708 16.2239 52.708 17.0869V23.9291C52.708 24.7919 53.4075 25.4914 54.2704 25.4914H60.044V30.7864C60.044 31.6492 60.7435 32.3488 61.6063 32.3488C62.4691 32.3488 63.1686 31.6494 63.1686 30.7864V25.4914H63.4115C64.2741 25.4914 64.9738 24.792 64.9738 23.9291C64.9738 23.0661 64.2741 22.3667 63.4115 22.3667Z" fill="#9B69C3"/>
<path d="M74.4342 22.4063C73.7869 22.4063 73.1686 22.5323 72.6013 22.7591V17.0869C72.6013 16.2241 71.9017 15.5245 71.0389 15.5245C70.1761 15.5245 69.4766 16.2239 69.4766 17.0869V30.7592C69.4766 31.622 70.1761 32.3216 71.0389 32.3216C71.9017 32.3216 72.6013 31.6222 72.6013 30.7592V28.8494V27.3637C72.6013 26.353 73.4236 25.5308 74.4342 25.5308C75.4452 25.5308 76.2673 26.3531 76.2673 27.3637V30.7592C76.2673 31.622 76.9669 32.3216 77.8297 32.3216C78.6925 32.3216 79.392 31.6222 79.392 30.7592V27.3637C79.3919 24.6302 77.1678 22.4063 74.4342 22.4063Z" fill="#9B69C3"/>
</g>
<defs>
<clipPath id="clip0">
<rect width="80" height="80" fill="white"/>
</clipPath>
</defs>
</svg>
