<svg width="24" height="18" viewBox="0 0 24 18" fill="none" xmlns="http://www.w3.org/2000/svg">
<path d="M22.7903 3.50654L22.7912 3.5097C23.019 4.34153 23.1385 5.68528 23.1967 6.87705C23.2253 7.4613 23.2384 7.98978 23.2444 8.37225C23.2474 8.56331 23.2485 8.7175 23.249 8.82347C23.2492 8.87645 23.2492 8.91735 23.2492 8.94475L23.2492 8.97553L23.2491 8.983L23.2491 8.98468L23.2491 8.98499V8.98873V8.98878V8.9891L23.2491 8.9908L23.2491 8.99826L23.249 9.02897C23.2489 9.05629 23.2487 9.09704 23.2482 9.14981C23.2473 9.25538 23.2454 9.40896 23.2417 9.59927C23.2342 9.98021 23.2193 10.5067 23.1896 11.0891C23.129 12.2747 23.0098 13.6167 22.79 14.4536C22.5878 15.2014 21.9963 15.7929 21.2485 15.9949C20.8644 16.0957 20.1262 16.1833 19.1731 16.2517C18.239 16.3188 17.1579 16.3638 16.1274 16.394C15.0981 16.4241 14.1251 16.4392 13.4092 16.4467C13.0513 16.4505 12.758 16.4524 12.5543 16.4533C12.4525 16.4538 12.3732 16.454 12.3194 16.4541L12.2582 16.4542L12.2428 16.4542L12.239 16.4542H12.2381H12.2379L12.2378 17.2042L12.2378 16.4542H12.2376H12.2367L12.2329 16.4542L12.2176 16.4542L12.1566 16.4541C12.103 16.454 12.0238 16.4537 11.9223 16.4533C11.7192 16.4523 11.4266 16.4503 11.0696 16.4464C10.3552 16.4386 9.38425 16.4229 8.35636 16.3916C7.32726 16.3603 6.2472 16.3135 5.31277 16.2438C4.35757 16.1726 3.61722 16.0813 3.23034 15.9766L3.22928 15.9763C2.48011 15.7745 1.88758 15.1822 1.68543 14.4332C1.46605 13.6075 1.34681 12.2663 1.28613 11.077C1.25636 10.4935 1.24145 9.96515 1.23399 9.58267C1.23026 9.39159 1.22841 9.23733 1.22748 9.13126C1.22702 9.07823 1.22679 9.03728 1.22667 9.00982L1.22658 8.97894L1.22656 8.97143L1.22656 8.96972L1.22656 8.96945V8.96941V8.96939V8.96935L1.22656 8.96907L1.22656 8.96737L1.22658 8.95991L1.22667 8.9292C1.22679 8.90188 1.22702 8.86113 1.22748 8.80835C1.2284 8.70278 1.23026 8.5492 1.23399 8.35888C1.24144 7.97792 1.25636 7.4514 1.28613 6.86903C1.34674 5.68336 1.46588 4.34137 1.68568 3.50463C1.88816 2.7552 2.50051 2.14478 3.22882 1.9434C3.61341 1.84287 4.35082 1.75537 5.30242 1.68705C6.23649 1.61999 7.31758 1.57495 8.34809 1.54481C9.37741 1.5147 10.3504 1.49963 11.0664 1.49209C11.4242 1.48832 11.7175 1.48644 11.9212 1.4855C12.023 1.48503 12.1024 1.48479 12.1562 1.48467L12.2173 1.48457L12.2327 1.48456L12.2365 1.48456L12.2374 1.48456H12.2376L12.2377 0.734558L12.2377 1.48456H12.2379L12.2388 1.48456L12.2426 1.48456L12.258 1.48457L12.3191 1.48468C12.3729 1.4848 12.4522 1.48504 12.554 1.48553C12.7576 1.48651 13.0509 1.48847 13.4087 1.49238C14.1246 1.50022 15.0974 1.51589 16.1265 1.54718C17.1568 1.57851 18.2375 1.62533 19.1709 1.695C20.1258 1.76627 20.8626 1.85747 21.2435 1.96172L21.2464 1.9625C21.9959 2.16437 22.5887 2.75711 22.7903 3.50654Z" stroke="#8193A9" stroke-width="1.5"/>
<path d="M9.89258 12.4959L16.0153 8.96939L9.89258 5.44293V12.4959Z" fill="#8193A9"/>
</svg>
