<svg width="20" height="19" viewBox="0 0 20 19" fill="none" xmlns="http://www.w3.org/2000/svg">
<path d="M12.3264 6.6041L12.5028 7.02001L12.9529 7.05853L18.9026 7.56771L14.3922 11.4605L14.0488 11.757L14.1519 12.1988L15.5043 17.9935L10.3869 14.919L10.0006 14.6869L9.61439 14.919L4.49698 17.9935L5.84941 12.1988L5.95252 11.757L5.60909 11.4606L1.09768 7.56669L7.04734 7.05751L7.49743 7.01899L7.67384 6.60312L10.0001 1.11907L12.3264 6.6041ZM19.3323 7.19679L19.3321 7.19702C19.3323 7.19684 19.3325 7.19666 19.3327 7.19648L19.3323 7.19679ZM4.36901 18.5418L4.36902 18.5417L4.36901 18.5418ZM10.4729 0.312955L13.0169 6.31126L10.4729 0.312955Z" stroke="#8193A9" stroke-width="1.5"/>
</svg>
