<svg width="80" height="80" viewBox="0 0 80 80" fill="none" xmlns="http://www.w3.org/2000/svg">
<path d="M72.1875 4.21875H7.8125C3.50469 4.21875 0 7.72344 0 12.0312V67.9688C0 72.2766 3.50469 75.7812 7.8125 75.7812H72.1875C76.4953 75.7812 80 72.2766 80 67.9688V12.0312C80 7.72344 76.4953 4.21875 72.1875 4.21875ZM76.875 67.9688C76.875 70.5534 74.7722 72.6562 72.1875 72.6562H7.8125C5.22781 72.6562 3.125 70.5534 3.125 67.9688V12.0312C3.125 9.44656 5.22781 7.34375 7.8125 7.34375H72.1875C74.7722 7.34375 76.875 9.44656 76.875 12.0312V67.9688Z" fill="#9B69C3"/>
<path d="M53.75 59.2188C50.993 59.2188 48.75 61.4617 48.75 64.2188C48.75 66.9758 50.993 69.2188 53.75 69.2188C56.507 69.2188 58.75 66.9758 58.75 64.2188C58.75 61.4617 56.507 59.2188 53.75 59.2188ZM53.75 66.0938C52.7161 66.0938 51.875 65.2527 51.875 64.2188C51.875 63.1848 52.7161 62.3438 53.75 62.3438C54.7839 62.3438 55.625 63.1848 55.625 64.2188C55.625 65.2527 54.7839 66.0938 53.75 66.0938Z" fill="#9B69C3"/>
<path d="M67.5 59.2188C64.743 59.2188 62.5 61.4617 62.5 64.2188C62.5 66.9758 64.743 69.2188 67.5 69.2188C70.257 69.2188 72.5 66.9758 72.5 64.2188C72.5 61.4617 70.257 59.2188 67.5 59.2188ZM67.5 66.0938C66.4661 66.0938 65.625 65.2527 65.625 64.2188C65.625 63.1848 66.4661 62.3438 67.5 62.3438C68.5339 62.3438 69.375 63.1848 69.375 64.2188C69.375 65.2527 68.5339 66.0938 67.5 66.0938Z" fill="#9B69C3"/>
<path d="M17.9655 62.6562H9.0625C8.19953 62.6562 7.5 63.3558 7.5 64.2188C7.5 65.0817 8.19953 65.7812 9.0625 65.7812H17.9655C18.8284 65.7812 19.528 65.0817 19.528 64.2188C19.528 63.3558 18.8284 62.6562 17.9655 62.6562Z" fill="#9B69C3"/>
<path d="M37.5521 62.6562H28.6492C27.7862 62.6562 27.0867 63.3558 27.0867 64.2188C27.0867 65.0817 27.7862 65.7812 28.6492 65.7812H37.5521C38.4151 65.7812 39.1146 65.0817 39.1146 64.2188C39.1146 63.3558 38.4151 62.6562 37.5521 62.6562Z" fill="#9B69C3"/>
<path d="M70.9375 11.7188H47.0312C46.1684 11.7188 45.4688 12.4183 45.4688 13.2812C45.4688 14.1442 46.1684 14.8438 47.0312 14.8438H69.375V35.7562H65.4355C64.8139 35.7562 64.2517 36.1245 64.0033 36.6942L62.608 39.8938L59.7842 31.1695C59.5958 30.5872 59.0847 30.1686 58.4769 30.0984C57.8678 30.0278 57.2756 30.3195 56.9597 30.8438L53.7417 36.1791H50.0016C49.3733 36.1791 48.8061 36.5555 48.5619 37.1344L46.6125 41.7567L41.6819 20.3312C41.5223 19.6377 40.9141 19.1395 40.2025 19.1198C39.4973 19.1044 38.8561 19.5637 38.6583 20.2475L33.9542 36.5072H28.5673C27.8614 36.5072 27.2431 36.9805 27.0589 37.662L26.215 40.7844L21.7367 27.5094C21.5314 26.9008 20.9748 26.48 20.3334 26.4481C19.6898 26.4152 19.0964 26.7803 18.8322 27.3656L14.6544 36.6166H10.625V14.8438H32.9688C33.8317 14.8438 34.5312 14.1442 34.5312 13.2812C34.5312 12.4183 33.8317 11.7188 32.9688 11.7188H9.0625C8.19953 11.7188 7.5 12.4183 7.5 13.2812V54.2188C7.5 55.0817 8.19953 55.7812 9.0625 55.7812H70.9375C71.8003 55.7812 72.5 55.0817 72.5 54.2188V13.2812C72.5 12.4183 71.8003 11.7188 70.9375 11.7188ZM10.625 52.6562V39.7416H15.6634C16.2775 39.7416 16.8347 39.3819 17.0875 38.8222L20.0456 32.272L24.9 46.6617C25.12 47.3138 25.7358 47.7477 26.4286 47.7241C27.1164 47.703 27.7094 47.2344 27.8891 46.57L29.7641 39.6323H35.1292C35.825 39.6323 36.4369 39.1723 36.6302 38.5041L39.9873 26.9L44.6517 47.1688C44.8037 47.8294 45.3644 48.3166 46.0395 48.375C46.085 48.3789 46.13 48.3808 46.175 48.3808C46.7984 48.3808 47.3686 48.008 47.6141 47.4255L51.0387 39.3041H54.6242C55.1719 39.3041 55.6794 39.0175 55.9622 38.5486L57.8664 35.3916L60.9052 44.7803C61.105 45.3983 61.6664 45.828 62.3148 45.8598C62.9667 45.8925 63.5642 45.5191 63.8237 44.9237L66.4587 38.8814H69.375V52.6562H10.625Z" fill="#9B69C3"/>
<path d="M40 14.8438C40.4109 14.8438 40.8141 14.6766 41.1045 14.3859C41.3953 14.0953 41.5625 13.6922 41.5625 13.2812C41.5625 12.8703 41.3953 12.4672 41.1045 12.1766C40.8141 11.8859 40.4109 11.7188 40 11.7188C39.5891 11.7188 39.1859 11.8859 38.8953 12.1766C38.6047 12.4672 38.4375 12.8703 38.4375 13.2812C38.4375 13.6922 38.6047 14.0953 38.8953 14.3859C39.1859 14.6766 39.5891 14.8438 40 14.8438Z" fill="#9B69C3"/>
</svg>
