<svg width="80" height="80" viewBox="0 0 80 80" fill="none" xmlns="http://www.w3.org/2000/svg">
<g clip-path="url(#clip0)">
<path d="M46.25 29.6875C47.1129 29.6875 47.8125 28.9879 47.8125 28.125C47.8125 27.2621 47.1129 26.5625 46.25 26.5625C45.3871 26.5625 44.6875 27.2621 44.6875 28.125C44.6875 28.9879 45.3871 29.6875 46.25 29.6875Z" fill="#9B69C3"/>
<path d="M33.75 29.6875C34.6129 29.6875 35.3125 28.9879 35.3125 28.125C35.3125 27.2621 34.6129 26.5625 33.75 26.5625C32.8871 26.5625 32.1875 27.2621 32.1875 28.125C32.1875 28.9879 32.8871 29.6875 33.75 29.6875Z" fill="#9B69C3"/>
<path d="M40.0001 43.75C42.6437 43.75 45.0121 42.0756 45.8935 39.5834C46.1812 38.7698 45.7549 37.877 44.9413 37.5894C44.1282 37.302 43.2351 37.728 42.9473 38.5416C42.5066 39.7878 41.3221 40.625 40.0001 40.625C38.6781 40.625 37.4935 39.7878 37.0529 38.5416C36.7652 37.728 35.8724 37.302 35.0588 37.5894C34.2452 37.877 33.819 38.7698 34.1066 39.5834C34.9881 42.0756 37.3565 43.75 40.0001 43.75Z" fill="#9B69C3"/>
<path d="M55.625 80C56.4879 80 57.1875 79.3004 57.1875 78.4375C57.1875 77.5746 56.4879 76.875 55.625 76.875C54.7621 76.875 54.0625 77.5746 54.0625 78.4375C54.0625 79.3004 54.7621 80 55.625 80Z" fill="#9B69C3"/>
<path d="M62.6562 76.875C61.7933 76.875 61.0938 77.5747 61.0938 78.4375C61.0938 79.3003 61.7933 80 62.6562 80H68.125C68.988 80 69.6875 79.3003 69.6875 78.4375V65.5281C69.6875 58.5248 64.5331 52.5962 57.6138 51.608L51.3359 50.7113C49.6353 50.4669 48.2416 49.1866 47.8958 47.4652C51.1891 45.2989 54.1917 41.8162 56.4811 37.5H57.1875C60.6338 37.5 63.4375 34.6963 63.4375 31.25C63.4375 28.9141 62.1044 26.7933 60.0781 25.7319C60.0781 25.7319 60.3125 20.3352 60.3125 20.3125C60.3125 9.11203 51.2003 0 40 0C28.7997 0 19.6875 9.11203 19.6875 20.3125C19.6875 20.3352 19.688 20.3578 19.6889 20.3805L19.9217 25.7319C17.8956 26.7933 16.5625 28.9141 16.5625 31.25C16.5625 34.6963 19.3663 37.5 22.8125 37.5H23.5189C25.8084 41.8166 28.8112 45.2992 32.1042 47.4652C31.7606 49.1742 30.3727 50.4656 28.6653 50.7111L22.3869 51.608C15.4552 52.5978 10.3125 58.5366 10.3125 65.5281V78.4375C10.3125 79.3003 11.012 80 11.875 80H48.5938C49.4567 80 50.1562 79.3003 50.1562 78.4375C50.1562 77.5747 49.4567 76.875 48.5938 76.875H41.5625V64.6105L50.2972 53.6906C50.4936 53.7356 50.6919 53.7758 50.8933 53.8045L54.0625 54.2573V64.6438C52.2439 65.2887 50.9375 67.0255 50.9375 69.0625C50.9375 71.6472 53.0403 73.75 55.625 73.75C58.2097 73.75 60.3125 71.6472 60.3125 69.0625C60.3125 67.0256 59.0061 65.2887 57.1875 64.6438V54.7042C62.5333 55.4759 66.5625 60.1261 66.5625 65.5281V76.875H62.6562ZM40 61.5611L32.5931 52.3013C33.6798 51.4377 34.4911 50.2806 34.933 48.9689C36.6005 49.6528 38.2975 50 40 50C41.7025 50 43.3994 49.6527 45.0669 48.9691C45.5091 50.2819 46.3205 51.4395 47.4066 52.3025L40 61.5611ZM40 3.125C49.4663 3.125 57.1697 10.817 57.1875 20.2792L56.9936 24.7342C55.2867 24.1136 54.0625 22.4738 54.0625 20.5578V20.3125C54.0625 19.4497 53.363 18.75 52.5 18.75H46.9906C43.2742 18.75 39.9336 16.6861 38.2725 13.3638C37.9484 12.7156 37.2209 12.3756 36.5159 12.5417C35.8108 12.7083 35.3125 13.3378 35.3125 14.0625C35.3125 16.6472 33.2097 18.75 30.625 18.75H27.5C26.637 18.75 25.9375 19.4497 25.9375 20.3125V20.5578C25.9375 22.4747 24.7119 24.1153 23.0069 24.7352L22.8125 20.2792C22.8303 10.817 30.5338 3.125 40 3.125ZM25.8734 35.2436C25.6097 34.7117 25.0672 34.375 24.4734 34.375H22.8125C21.0894 34.375 19.6875 32.9731 19.6875 31.25C19.6875 28.7617 22.0589 28.2819 22.3825 28.0714C25.6998 27.6811 28.3716 25.1317 28.9473 21.875H30.625C33.6069 21.875 36.2041 20.1956 37.5203 17.7331C39.9163 20.3455 43.3141 21.875 46.9906 21.875H51.0527C51.6281 25.1294 54.2973 27.6777 57.6164 28.0706C57.9312 28.2759 60.3125 28.7728 60.3125 31.25C60.3125 32.9731 58.9106 34.375 57.1875 34.375H55.5266C54.9328 34.375 54.3903 34.7116 54.1266 35.2436C51.377 40.7906 46.1964 46.875 40 46.875C33.8216 46.875 28.6648 40.8753 25.8734 35.2436ZM13.4375 76.875V65.5281C13.4375 60.1263 17.4664 55.4764 22.8125 54.7044V59.5322C19.2508 60.2581 16.5625 63.4145 16.5625 67.1875V72.1875C16.5625 73.0503 17.262 73.75 18.125 73.75H21.25C22.113 73.75 22.8125 73.0503 22.8125 72.1875C22.8125 71.3247 22.113 70.625 21.25 70.625H19.6875V67.1875C19.6875 64.6028 21.7903 62.5 24.375 62.5C26.9597 62.5 29.0625 64.6028 29.0625 67.1875V70.625H27.5C26.637 70.625 25.9375 71.3247 25.9375 72.1875C25.9375 73.0503 26.637 73.75 27.5 73.75H30.625C31.488 73.75 32.1875 73.0503 32.1875 72.1875V67.1875C32.1875 63.4147 29.4992 60.2581 25.9375 59.5322V54.2575L29.1078 53.8045C29.3087 53.7756 29.5066 53.7358 29.7023 53.6909L38.4375 64.6105V76.875H13.4375ZM55.625 70.625C54.7634 70.625 54.0625 69.9241 54.0625 69.0625C54.0625 68.2009 54.7634 67.5 55.625 67.5C56.4866 67.5 57.1875 68.2009 57.1875 69.0625C57.1875 69.9241 56.4866 70.625 55.625 70.625Z" fill="#9B69C3"/>
</g>
<defs>
<clipPath id="clip0">
<rect width="80" height="80" fill="white"/>
</clipPath>
</defs>
</svg>
