<svg width="80" height="80" viewBox="0 0 80 80" fill="none" xmlns="http://www.w3.org/2000/svg">
<g clip-path="url(#clip0)">
<path d="M76.7066 33.4318L75.6775 32.6622C74.3958 31.7027 73.9411 30.0047 74.571 28.5331L75.0775 27.3521C76.1066 24.9492 75.9473 22.2728 74.6405 20.0096C73.3332 17.7459 71.0956 16.2694 68.4998 15.96L67.2242 15.8074C65.6343 15.6176 64.391 14.3743 64.2012 12.785L64.0492 11.5087C63.7391 8.91352 62.2627 6.67537 59.9995 5.36862C57.7358 4.06125 55.0594 3.90195 52.6571 4.93161L51.4754 5.43759C50.0039 6.06808 48.3059 5.61276 47.3464 4.33103L46.5768 3.30259C45.0106 1.20971 42.6138 0.00976562 39.9997 0.00976562C37.3856 0.00976562 34.9887 1.20971 33.4226 3.30259L32.6523 4.33103C31.6929 5.61337 29.9955 6.06808 28.5233 5.43759L27.3423 4.93161C24.9394 3.90256 22.263 4.06125 19.9998 5.36862C17.7361 6.67537 16.2596 8.91352 15.9502 11.5087L15.7976 12.7843C15.6078 14.3743 14.3645 15.6176 12.7746 15.8074L11.4989 15.96C8.90374 16.2694 6.6656 17.7459 5.35884 20.0096C4.05148 22.2728 3.89279 24.9492 4.92184 27.3521L5.42781 28.5331C6.0583 30.0047 5.60298 31.7027 4.32126 32.6622L3.29282 33.4318C1.20055 34.998 0 37.3954 0 40.0089C0 42.623 1.20055 45.0205 3.29282 46.5866L4.32187 47.3563C5.60359 48.3157 6.0583 50.0137 5.42842 51.4853L4.92184 52.6663C3.89279 55.0692 4.05209 57.7456 5.35884 60.0088C6.66621 62.2726 8.90374 63.749 11.4995 64.0584L12.7752 64.211C14.3651 64.4008 15.6084 65.6441 15.7982 67.2335L15.9502 68.5097C16.2602 71.1049 17.7367 73.343 19.9998 74.6498C22.2636 75.9566 24.94 76.1159 27.3423 75.0868L28.5239 74.5808C29.9955 73.9503 31.6935 74.4057 32.6529 75.6874L33.4226 76.7158C34.9887 78.8087 37.3862 80.0093 40.0003 80.0093C42.6138 80.0093 45.0112 78.8087 46.5774 76.7158L47.347 75.6874C48.3065 74.4057 50.0039 73.9503 51.4766 74.5814L52.6577 75.0868C55.06 76.1159 57.7364 75.9572 60.0001 74.6504C62.2633 73.343 63.7397 71.1049 64.0498 68.5097L64.2018 67.2341C64.3916 65.6441 65.6349 64.4008 67.2248 64.211L68.5004 64.0591C71.0956 63.749 73.3344 62.2726 74.6411 60.0094C75.9479 57.7456 76.1072 55.0692 75.0775 52.6663L74.5722 51.4859C73.9417 50.0137 74.3964 48.3157 75.6787 47.3563L76.7072 46.5866C78.8 45.0205 80 42.623 80 40.0095C79.9994 37.3954 78.7988 34.998 76.7066 33.4318ZM74.834 44.0848L73.8056 44.8545C71.3648 46.6806 70.4981 49.9136 71.6993 52.7163L72.2046 53.8968C72.8424 55.3854 72.7436 57.0437 71.9342 58.4463C71.1243 59.8495 69.7376 60.7638 68.1293 60.956L66.8537 61.108C63.8264 61.4693 61.4601 63.8363 61.0988 66.8636L60.9462 68.1392C60.7539 69.7475 59.8396 71.1342 58.437 71.9441C57.0345 72.7535 55.3762 72.8523 53.8875 72.2145L52.7065 71.7085C49.9038 70.508 46.6714 71.3747 44.8446 73.8155L44.075 74.8439C43.1045 76.1403 41.6189 76.8843 39.9997 76.8843C38.3798 76.8843 36.8942 76.1403 35.9238 74.8439L35.1541 73.8155C33.8779 72.1095 31.915 71.1727 29.8923 71.1727C29.0202 71.1727 28.137 71.3472 27.2929 71.7085L26.1119 72.2145C24.6226 72.8523 22.9649 72.7535 21.5617 71.9441C20.1591 71.1342 19.2448 69.7475 19.0526 68.1392L18.9006 66.8636C18.5387 63.8363 16.1724 61.47 13.145 61.1086L11.8694 60.956C10.2612 60.7638 8.87444 59.8495 8.06451 58.4469C7.25519 57.0443 7.15632 55.386 7.79413 53.8974L8.30011 52.7163C9.50066 49.9142 8.63397 46.6812 6.1938 44.8545L5.16475 44.0848C3.86838 43.1144 3.12498 41.6288 3.12498 40.0089C3.12498 38.3897 3.86838 36.9041 5.16536 35.9336L6.1938 35.164C8.63458 33.3372 9.50127 30.1042 8.30011 27.3021L7.79474 26.1211C7.15693 24.6324 7.2558 22.9741 8.06512 21.5715C8.87505 20.1689 10.2618 19.2546 11.87 19.0624L13.1456 18.9098C16.173 18.5485 18.5393 16.1821 18.9006 13.1548L19.0532 11.8792C19.2455 10.2709 20.1598 8.88422 21.5623 8.07429C22.9649 7.26436 24.6232 7.16609 26.1119 7.80391L27.2929 8.30927C30.095 9.50983 33.328 8.64375 35.1548 6.20296L35.9244 5.17453C36.8949 3.87815 38.3804 3.13414 39.9997 3.13414C41.6189 3.13414 43.1045 3.87815 44.075 5.17453L44.8452 6.20357C46.6714 8.64436 49.905 9.51044 52.7065 8.30989L53.8875 7.80391C55.3762 7.16609 57.0345 7.26497 58.437 8.07429C59.8396 8.88422 60.7545 10.2709 60.9462 11.8792L61.0988 13.1548C61.4601 16.1821 63.827 18.5485 66.8537 18.9098L68.1293 19.0624C69.7376 19.2546 71.1243 20.1689 71.9342 21.5715C72.7442 22.9741 72.8424 24.6324 72.2052 26.1211L71.6993 27.3021C70.4987 30.1048 71.3648 33.3372 73.8056 35.164L74.834 35.9336C76.131 36.9041 76.8744 38.3897 76.8744 40.0095C76.8744 41.6288 76.131 43.1144 74.834 44.0848Z" fill="#9B69C3"/>
<path d="M40.0004 9.08203C35.2867 9.08203 30.7603 10.116 26.5477 12.1551C25.7707 12.5311 25.446 13.4655 25.8214 14.2419C26.1974 15.0189 27.1324 15.3436 27.9088 14.9676C31.6935 13.136 35.7615 12.207 40.0004 12.207C55.3256 12.207 67.7937 24.6752 67.7937 40.001C67.7937 55.3262 55.3256 67.7943 40.0004 67.7943C24.6746 67.7943 12.2064 55.3262 12.2064 40.001C12.2064 33.7236 14.248 27.8008 18.1109 22.8722C18.6431 22.1929 18.5241 21.2108 17.8448 20.678C17.1655 20.1458 16.1834 20.2654 15.6512 20.9441C11.3537 26.4287 9.08203 33.018 9.08203 40.001C9.08203 57.0492 22.9522 70.9193 40.0004 70.9193C57.0486 70.9193 70.9187 57.0492 70.9187 40.001C70.9187 22.9522 57.0486 9.08203 40.0004 9.08203Z" fill="#9B69C3"/>
<path d="M17.155 32.0451L15.9648 33.5624C15.432 34.2418 15.551 35.2238 16.2297 35.756C16.909 36.2889 17.8911 36.1705 18.4233 35.4912L19.077 34.6586V44.9925H18.0309C17.1678 44.9925 16.4684 45.692 16.4684 46.555C16.4684 47.418 17.1678 48.1175 18.0309 48.1175H23.1945C24.0569 48.1175 24.757 47.418 24.757 46.555C24.757 45.692 24.0569 44.9925 23.1945 44.9925H22.202V33.0095C22.202 32.1464 21.5019 31.447 20.6395 31.447H18.3843C17.9045 31.447 17.451 31.6673 17.155 32.0451Z" fill="#9B69C3"/>
<path d="M29.7106 48.1169H30.5223C33.1029 48.1169 35.2019 46.0179 35.2019 43.4373V35.8635C35.2019 33.2829 33.1023 31.1833 30.5223 31.1833H29.7106C27.13 31.1833 25.031 33.2829 25.031 35.8635V43.4373C25.031 46.0179 27.13 48.1169 29.7106 48.1169ZM28.156 35.8635C28.156 35.0059 28.8536 34.3083 29.7106 34.3083H30.5223C31.3793 34.3083 32.0769 35.0059 32.0769 35.8635V43.4373C32.0769 44.2943 31.3793 44.9919 30.5223 44.9919H29.7106C28.8536 44.9919 28.156 44.2943 28.156 43.4373V35.8635Z" fill="#9B69C3"/>
<path d="M42.3021 48.1169C44.8827 48.1169 46.9817 46.0179 46.9817 43.4373V35.8635C46.9817 33.2829 44.8821 31.1833 42.3021 31.1833H41.4904C38.9098 31.1833 36.8108 33.2829 36.8108 35.8635V43.4373C36.8108 46.0179 38.9098 48.1169 41.4904 48.1169H42.3021ZM39.9358 43.4373V35.8635C39.9358 35.0059 40.6334 34.3083 41.4904 34.3083H42.3021C43.1591 34.3083 43.8567 35.0059 43.8567 35.8635V43.4373C43.8567 44.2943 43.1591 44.9919 42.3021 44.9919H41.4904C40.6334 44.9919 39.9358 44.2949 39.9358 43.4373Z" fill="#9B69C3"/>
<path d="M62.937 30.9936C62.2394 30.4864 61.2622 30.6408 60.7544 31.3384L50.8264 44.9914C50.3186 45.6896 50.473 46.6668 51.1713 47.174C51.4484 47.3754 51.77 47.4731 52.0886 47.4731C52.5714 47.4731 53.0481 47.2497 53.3539 46.8292L63.2819 33.1762C63.7897 32.4786 63.6347 31.5014 62.937 30.9936Z" fill="#9B69C3"/>
<path d="M25.9262 25.0437C26.2906 25.0437 26.6568 24.9167 26.9528 24.6585C30.5649 21.5043 35.198 19.7672 39.9996 19.7672C44.4917 19.7672 48.7282 21.2308 52.2511 23.9994C52.9298 24.5328 53.9118 24.415 54.4453 23.7363C54.9781 23.0582 54.8603 22.0755 54.1822 21.5427C50.1027 18.3365 45.1985 16.6422 39.9996 16.6422C34.4424 16.6422 29.0787 18.6533 24.8978 22.3044C24.2478 22.872 24.1806 23.859 24.7483 24.509C25.0571 24.863 25.4904 25.0437 25.9262 25.0437Z" fill="#9B69C3"/>
<path d="M25.6388 57.6836C29.7171 60.8891 34.6219 62.5835 39.8208 62.5835C43.4279 62.5835 46.8813 61.7705 50.0856 60.1677C50.8571 59.782 51.1696 58.8433 50.7838 58.0712C50.3975 57.2997 49.4594 56.9872 48.6873 57.3729C45.9212 58.7572 42.9378 59.4585 39.8208 59.4585C35.3292 59.4585 31.0922 57.9955 27.5693 55.2263C26.8912 54.6935 25.9085 54.8113 25.3757 55.4894C24.8423 56.1681 24.9601 57.1501 25.6388 57.6836Z" fill="#9B69C3"/>
<path d="M55.3431 55.0112C54.9976 54.4937 54.3506 54.2251 53.7397 54.3472C53.0915 54.4772 52.5813 55.0192 52.4952 55.6753C52.411 56.3125 52.7418 56.954 53.3082 57.2567C53.877 57.5613 54.5923 57.4777 55.0776 57.0523C55.6611 56.539 55.7648 55.6564 55.3431 55.0112Z" fill="#9B69C3"/>
<path d="M52.6903 30.6951C50.6627 30.6951 49.0129 32.3442 49.0129 34.3718C49.0129 36.3994 50.6627 38.0492 52.6903 38.0492C54.7173 38.0492 56.3671 36.3994 56.3671 34.3718C56.3671 32.3442 54.7173 30.6951 52.6903 30.6951ZM52.6903 34.9242C52.3857 34.9242 52.1379 34.6764 52.1379 34.3718C52.1379 34.0673 52.3857 33.8195 52.6903 33.8195C52.9949 33.8195 53.2421 34.0673 53.2421 34.3718C53.2421 34.6764 52.9949 34.9242 52.6903 34.9242Z" fill="#9B69C3"/>
<path d="M57.6855 43.8954C57.6855 45.923 59.3353 47.5728 61.3623 47.5728C63.3899 47.5728 65.0397 45.923 65.0397 43.8954C65.0397 41.8678 63.3899 40.218 61.3623 40.218C59.3353 40.218 57.6855 41.8678 57.6855 43.8954ZM61.9147 43.8954C61.9147 44.2 61.6675 44.4478 61.3629 44.4478C61.0583 44.4478 60.8105 44.2 60.8105 43.8954C60.8105 43.5908 61.0583 43.343 61.3629 43.343C61.6675 43.343 61.9147 43.5908 61.9147 43.8954Z" fill="#9B69C3"/>
<path d="M20.2296 17.7282C20.4811 18.3318 21.0951 18.7212 21.7482 18.6907C22.3927 18.6602 22.9591 18.2195 23.1581 17.6079C23.3589 16.9903 23.1404 16.2847 22.6228 15.891C22.0949 15.4894 21.3575 15.4662 20.8046 15.8318C20.1881 16.2389 19.9513 17.0488 20.2296 17.7282Z" fill="#9B69C3"/>
</g>
<defs>
<clipPath id="clip0">
<rect width="80" height="80" fill="white"/>
</clipPath>
</defs>
</svg>
