<svg width="30" height="30" viewBox="0 0 30 30" fill="none" xmlns="http://www.w3.org/2000/svg">
<path d="M21.8792 0H8.12071C3.64288 0 0 3.64288 0 8.12071V21.8795C0 26.3571 3.64288 29.9999 8.12071 29.9999H21.8795C26.3571 29.9999 29.9999 26.3571 29.9999 21.8795V8.12071C29.9999 3.64288 26.3571 0 21.8792 0V0ZM28.2412 21.8795C28.2412 25.3873 25.3873 28.2412 21.8792 28.2412H8.12071C4.61265 28.2412 1.75872 25.3873 1.75872 21.8795V8.12071C1.75872 4.61265 4.61265 1.75872 8.12071 1.75872H21.8795C25.3873 1.75872 28.2412 4.61265 28.2412 8.12071V21.8795Z" fill="#9B69C3" fill-opacity="0.75"/>
<path d="M15.0002 6.79712C10.4771 6.79712 6.79736 10.4768 6.79736 15C6.79736 19.5231 10.4771 23.2029 15.0002 23.2029C19.5234 23.2029 23.2031 19.5231 23.2031 15C23.2031 10.4768 19.5234 6.79712 15.0002 6.79712ZM15.0002 21.4442C11.4471 21.4442 8.55609 18.5534 8.55609 15C8.55609 11.4468 11.4471 8.55584 15.0002 8.55584C18.5536 8.55584 21.4444 11.4468 21.4444 15C21.4444 18.5534 18.5536 21.4442 15.0002 21.4442Z" fill="#9B69C3" fill-opacity="0.75"/>
<path d="M23.399 3.88379C22.0623 3.88379 20.9751 4.9712 20.9751 6.30764C20.9751 7.64431 22.0623 8.73173 23.399 8.73173C24.7356 8.73173 25.823 7.64431 25.823 6.30764C25.823 4.97098 24.7356 3.88379 23.399 3.88379ZM23.399 6.97277C23.0323 6.97277 22.7338 6.67431 22.7338 6.30764C22.7338 5.94075 23.0323 5.64251 23.399 5.64251C23.7658 5.64251 24.0643 5.94075 24.0643 6.30764C24.0643 6.67431 23.7658 6.97277 23.399 6.97277Z" fill="#9B69C3" fill-opacity="0.75"/>
</svg>
