<svg width="23" height="33" viewBox="0 0 23 33" fill="none" xmlns="http://www.w3.org/2000/svg">
<path d="M17.125 13.3047V6.625C17.125 5.13316 16.5324 3.70242 15.4775 2.64752C14.4226 1.59263 12.9918 1 11.5 1C10.0082 1 8.57742 1.59263 7.52252 2.64752C6.46763 3.70242 5.875 5.13316 5.875 6.625V13.3047" stroke="#2362EE" stroke-width="1.5" stroke-linecap="round" stroke-linejoin="round"/>
<path d="M18.85 13.6797H4.15C2.4103 13.6797 1 15.1018 1 16.8562V28.5032C1 30.2575 2.4103 31.6797 4.15 31.6797H18.85C20.5897 31.6797 22 30.2575 22 28.5032V16.8562C22 15.1018 20.5897 13.6797 18.85 13.6797Z" stroke="#2362EE" stroke-width="1.5" stroke-linecap="round" stroke-linejoin="round"/>
<path d="M13.0003 19.6797H10V21.1797V24.1797C10 24.9297 10.75 25.6797 11.5 25.6797C12.25 25.6797 13 24.9297 13.0003 24.1797L13 21.1797C13 19.676 13.0003 20.4297 13.0003 19.6797Z" stroke="#2362EE" stroke-width="1.5" stroke-linecap="round" stroke-linejoin="round"/>
</svg>
