<svg width="80" height="80" viewBox="0 0 80 80" fill="none" xmlns="http://www.w3.org/2000/svg">
<g clip-path="url(#clip0)">
<path d="M16.7188 29.6876C16.7188 42.6112 27.2327 53.1251 40.1563 53.1251C53.0799 53.1251 63.5938 42.6112 63.5938 29.6876C63.5938 16.764 53.0799 6.25006 40.1563 6.25006C27.2327 6.25006 16.7188 16.764 16.7188 29.6876ZM40.1563 9.37507C51.3569 9.37507 60.4688 18.487 60.4688 29.6876C60.4688 40.8882 51.3569 50.0001 40.1563 50.0001C28.9557 50.0001 19.8438 40.8882 19.8438 29.6876C19.8438 18.487 28.9557 9.37507 40.1563 9.37507Z" fill="#9B69C3"/>
<path d="M25.6859 26.9019L31.7425 32.8694L30.349 41.2562C30.252 41.8403 30.4931 42.4287 30.9722 42.7766C31.4507 43.1245 32.0849 43.1715 32.6104 42.8993L40.1562 38.9808L47.7014 42.8993C48.2226 43.1697 48.8568 43.1276 49.3396 42.7766C49.8187 42.4287 50.0598 41.8403 49.9627 41.2562L48.5693 32.8694L54.6258 26.9019C55.0476 26.4869 55.1983 25.8692 55.0152 25.3059C54.8321 24.7431 54.3469 24.3324 53.7616 24.2439L45.3564 22.9786L41.5533 15.373C41.289 14.8438 40.7476 14.5093 40.1562 14.5093C39.5641 14.5093 39.0234 14.8438 38.7585 15.373L34.9554 22.9786L26.5502 24.2439C25.9649 24.3317 25.4796 24.7431 25.2965 25.3059C25.1134 25.8692 25.2648 26.4869 25.6859 26.9019ZM36.2231 25.948C36.726 25.8723 37.1606 25.5567 37.3882 25.102L40.1562 19.5655L42.9241 25.102C43.1518 25.5567 43.5864 25.8723 44.0893 25.948L50.2069 26.869L45.7983 31.2116C45.4363 31.5687 45.2703 32.0796 45.3533 32.5813L46.3677 38.6854L40.8758 35.8339C40.6506 35.7167 40.4034 35.6581 40.1562 35.6581C39.909 35.6581 39.6618 35.7167 39.436 35.8339L33.944 38.6854L34.9584 32.5813C35.042 32.0796 34.876 31.5687 34.5135 31.2116L30.1055 26.869L36.2231 25.948Z" fill="#9B69C3"/>
<path d="M41.7188 1.5625C41.7188 2.42554 41.0193 3.125 40.1563 3.125C39.2932 3.125 38.5938 2.42554 38.5938 1.5625C38.5938 0.699464 39.2932 0 40.1563 0C41.0193 0 41.7188 0.699464 41.7188 1.5625Z" fill="#9B69C3"/>
<path d="M32.7924 0.921008C19.6485 4.27611 10.4688 16.1053 10.4688 29.6875C10.4688 38.1232 14.0155 46.0718 20.2417 51.7011L10.8282 68.2911C10.5255 68.8251 10.5634 69.4867 10.9247 69.9824C11.286 70.4786 11.9037 70.7172 12.5049 70.5921L23.1952 68.3722L26.9525 78.96C27.1564 79.5362 27.6782 79.9396 28.2874 79.994C28.8965 80.0483 29.4806 79.7413 29.7827 79.2097L40.1563 60.9723L50.5292 79.2097C50.8088 79.701 51.3288 79.9995 51.8867 79.9995C51.9324 79.9995 51.9788 79.9976 52.0246 79.994C52.6337 79.9396 53.1556 79.5356 53.3601 78.96L57.1168 68.3722L67.8071 70.5921C68.4077 70.7166 69.026 70.478 69.3873 69.9824C69.7492 69.4867 69.7865 68.8251 69.4837 68.2911L60.0703 51.7011C66.2965 46.0718 69.8432 38.1232 69.8432 29.6875C69.8432 16.1053 60.6635 4.27611 47.5202 0.921008C46.6834 0.707384 45.8332 1.21215 45.6196 2.04833C45.4059 2.88451 45.9107 3.73534 46.7469 3.94896C58.5059 6.95068 66.7188 17.5348 66.7188 29.6875C66.7188 44.4782 54.7065 56.25 40.1563 56.25C25.5957 56.25 13.5938 44.4684 13.5938 29.6875C13.5938 17.5348 21.806 6.95068 33.5651 3.94896C34.4013 3.73534 34.906 2.88451 34.693 2.04833C34.4794 1.21215 33.6292 0.707384 32.7924 0.921008ZM28.7555 74.6961L25.6848 66.0431C25.4236 65.3071 24.6594 64.8768 23.8947 65.0355L15.2503 66.8305L22.7002 53.7006C27.0441 56.8586 32.1875 58.7824 37.5361 59.2585L28.7555 74.6961ZM56.4173 65.0355C55.6531 64.8768 54.8884 65.3071 54.6271 66.0431L51.5571 74.6961L42.7759 59.2585C48.1251 58.7824 53.2679 56.8586 57.6124 53.7006L65.0623 66.8305L56.4173 65.0355Z" fill="#9B69C3"/>
</g>
<defs>
<clipPath id="clip0">
<rect width="80" height="80" fill="white"/>
</clipPath>
</defs>
</svg>
