<svg width="17" height="13" viewBox="0 0 17 13" fill="none" xmlns="http://www.w3.org/2000/svg">
<path d="M0.782608 6.23345L4.46933 7.51753L5.89632 11.8001C5.98763 12.0744 6.34704 12.1758 6.5856 11.9938L8.64064 10.4304C8.85606 10.2666 9.16288 10.2584 9.38801 10.4109L13.0946 12.9222C13.3498 13.0953 13.7113 12.9648 13.7753 12.677L16.4906 0.488717C16.5604 0.174368 16.2295 -0.0878713 15.9087 0.0278944L0.778288 5.4748C0.4049 5.60918 0.408154 6.10251 0.782608 6.23345ZM5.66635 6.83398L12.8716 2.69274C13.0011 2.61854 13.1343 2.78193 13.0231 2.87819L7.0767 8.03638C6.86768 8.21794 6.73286 8.46092 6.69467 8.72466L6.49211 10.1255C6.46528 10.3125 6.18373 10.3311 6.12843 10.1501L5.34939 7.59562C5.26016 7.30426 5.39019 6.99305 5.66635 6.83398Z" fill="white"/>
</svg>
