<svg width="24" height="18" fill="none" xmlns="http://www.w3.org/2000/svg"><path d="M22.79 3.507l.001.003c.228.832.348 2.175.406 3.367a45.704 45.704 0 01.052 2.068v.04h0v.164l-.007.45a52.47 52.47 0 01-.052 1.49c-.061 1.186-.18 2.528-.4 3.365a2.197 2.197 0 01-1.541 1.54c-.385.102-1.123.19-2.076.258-.934.067-2.015.112-3.046.142a148.02 148.02 0 01-3.808.06h-.08 0-.001v.75-.75h0-.081a130.957 130.957 0 01-3.8-.062 72.039 72.039 0 01-3.044-.148c-.955-.071-1.696-.163-2.083-.267h0a2.198 2.198 0 01-1.545-1.544c-.219-.825-.338-2.167-.399-3.356a48.255 48.255 0 01-.06-2.067v-.04h0v0h0v-.04a28.03 28.03 0 01.008-.571c.007-.381.022-.908.052-1.49.06-1.186.18-2.528.4-3.364.202-.75.815-1.36 1.543-1.562.384-.1 1.122-.188 2.073-.256a74.855 74.855 0 013.046-.142 148.306 148.306 0 013.808-.06h.081v-.75.75h.083a91.494 91.494 0 011.09.007c.716.008 1.688.024 2.717.055 1.03.032 2.111.078 3.045.148.955.071 1.692.162 2.073.267h.002c.75.202 1.343.795 1.544 1.545z" stroke="#8193A9" stroke-width="1.5"/><path d="M9.893 12.496l6.122-3.527-6.122-3.526v7.053z" fill="#8193A9"/></svg>