<svg width="185" height="14" fill="none" xmlns="http://www.w3.org/2000/svg"><path d="M6.092 13.216c-1.8 0-3.204-.498-4.212-1.494C.884 10.726.386 9.304.386 7.456V.4h2.916v6.948c0 2.256.936 3.384 2.808 3.384.912 0 1.608-.27 2.088-.81.48-.552.72-1.41.72-2.574V.4h2.88v7.056c0 1.848-.504 3.27-1.512 4.266-.996.996-2.394 1.494-4.194 1.494zM21.43 8.05l-1.692 1.764V13H16.84V.4h2.898v5.886L25.318.4h3.24l-5.22 5.616L28.862 13h-3.401L21.43 8.05zM40.352 13l-2.43-3.51H35.24V13h-2.916V.4h5.454c1.116 0 2.082.186 2.898.558.828.372 1.464.9 1.908 1.584.444.684.666 1.494.666 2.43 0 .936-.228 1.746-.684 2.43-.444.672-1.08 1.188-1.908 1.548L43.484 13h-3.132zm-.054-8.028c0-.708-.228-1.248-.684-1.62-.456-.384-1.122-.576-1.998-.576H35.24v4.392h2.376c.876 0 1.542-.192 1.998-.576.456-.384.684-.924.684-1.62zM47.72.4h2.916V13H47.72V.4zm19.622 0V13h-2.394l-6.282-7.65V13h-2.88V.4h2.412l6.264 7.65V.4h2.88zm17.185 0L79.073 13h-2.88L70.757.4h3.15l3.834 9 3.888-9h2.898zm12.968 10.26V13H87.74V.4h9.522v2.34h-6.624v2.736h5.85v2.268h-5.85v2.916h6.858zm8.62 2.556c-.996 0-1.962-.132-2.898-.396-.924-.276-1.668-.63-2.232-1.062l.99-2.196c.54.396 1.182.714 1.926.954s1.488.36 2.232.36c.828 0 1.44-.12 1.836-.36.396-.252.594-.582.594-.99 0-.3-.12-.546-.36-.738-.228-.204-.528-.366-.9-.486-.36-.12-.852-.252-1.476-.396-.96-.228-1.746-.456-2.358-.684a3.9 3.9 0 01-1.584-1.098c-.432-.504-.648-1.176-.648-2.016 0-.732.198-1.392.594-1.98.396-.6.99-1.074 1.782-1.422.804-.348 1.782-.522 2.934-.522.804 0 1.59.096 2.358.288.768.192 1.44.468 2.016.828l-.9 2.214c-1.164-.66-2.328-.99-3.492-.99-.816 0-1.422.132-1.818.396-.384.264-.576.612-.576 1.044 0 .432.222.756.666.972.456.204 1.146.408 2.07.612.96.228 1.746.456 2.358.684a3.835 3.835 0 011.566 1.08c.444.492.666 1.158.666 1.998 0 .72-.204 1.38-.612 1.98-.396.588-.996 1.056-1.8 1.404-.804.348-1.782.522-2.934.522zm11.933-10.44h-4.032V.4h10.98v2.376h-4.032V13h-2.916V2.776zm16.531 10.44c-1.284 0-2.448-.276-3.492-.828a6.416 6.416 0 01-2.448-2.322c-.588-.996-.882-2.118-.882-3.366 0-1.248.294-2.364.882-3.348a6.242 6.242 0 012.448-2.322c1.044-.564 2.214-.846 3.51-.846 1.092 0 2.076.192 2.952.576a5.915 5.915 0 012.232 1.656l-1.872 1.728c-.852-.984-1.908-1.476-3.168-1.476-.78 0-1.476.174-2.088.522a3.647 3.647 0 00-1.44 1.422c-.336.612-.504 1.308-.504 2.088s.168 1.476.504 2.088a3.773 3.773 0 001.44 1.44c.612.336 1.308.504 2.088.504 1.26 0 2.316-.498 3.168-1.494l1.872 1.728a5.835 5.835 0 01-2.232 1.674c-.888.384-1.878.576-2.97.576zM143.91.4h2.916v10.224h6.318V13h-9.234V.4zm18.463 12.816c-1.8 0-3.204-.498-4.212-1.494-.996-.996-1.494-2.418-1.494-4.266V.4h2.916v6.948c0 2.256.936 3.384 2.808 3.384.912 0 1.608-.27 2.088-.81.48-.552.72-1.41.72-2.574V.4h2.88v7.056c0 1.848-.504 3.27-1.512 4.266-.996.996-2.394 1.494-4.194 1.494zm20-6.768c.72.228 1.284.612 1.692 1.152.408.528.612 1.182.612 1.962 0 1.104-.432 1.956-1.296 2.556-.852.588-2.1.882-3.744.882h-6.516V.4h6.156c1.536 0 2.712.294 3.528.882.828.588 1.242 1.386 1.242 2.394 0 .612-.15 1.158-.45 1.638-.288.48-.696.858-1.224 1.134zm-6.354-3.852v2.97h2.898c.72 0 1.266-.126 1.638-.378.372-.252.558-.624.558-1.116 0-.492-.186-.858-.558-1.098-.372-.252-.918-.378-1.638-.378h-2.898zm3.402 8.208c.768 0 1.344-.126 1.728-.378.396-.252.594-.642.594-1.17 0-1.044-.774-1.566-2.322-1.566h-3.402v3.114h3.402z" fill="#0B131F"/></svg>