<svg width="28" height="26" fill="none" xmlns="http://www.w3.org/2000/svg"><path d="M14.203.627h0l3.562 8.208.119.275.298.025 9.118.762a.206.206 0 01.19.142.178.178 0 01-.06.204h-.001l-6.916 5.835-.236.198.072.3 2.072 8.68c.02.08-.009.15-.08.2a.223.223 0 01-.25.01h0l-7.837-4.602-.253-.149-.253.149-7.836 4.601s0 0 0 0a.225.225 0 01-.252-.01.182.182 0 01-.08-.2h0l2.073-8.68.072-.299-.236-.198-6.918-5.836h0a.178.178 0 01-.06-.205c.024-.072.084-.132.19-.14 0 0 0 0 0 0l9.117-.764.298-.025.12-.274 3.56-8.207h0A.21.21 0 0114 .5a.21.21 0 01.203.127z" stroke="#8193A9"/></svg>